<?xml version="1.0" standalone="no"?>
<!DOCTYPE svg PUBLIC "-//W3C//DTD SVG 20010904//EN"
 "http://www.w3.org/TR/2001/REC-SVG-20010904/DTD/svg10.dtd">
<svg version="1.0" xmlns="http://www.w3.org/2000/svg"
 width="512.000000pt" height="495.000000pt" viewBox="0 0 512.000000 495.000000"
 preserveAspectRatio="xMidYMid meet">

<g transform="translate(0.000000,495.000000) scale(0.100000,-0.100000)"
fill="#000000" stroke="none">
<path d="M3353 4931 c-109 -40 -195 -120 -247 -230 l-31 -66 -3 -267 -3 -268
-1020 0 -1019 0 0 103 c0 135 -14 205 -57 296 -61 128 -185 229 -328 267 -27
8 -89 14 -136 14 -148 0 -255 -44 -360 -149 -70 -70 -106 -130 -133 -220 -14
-49 -16 -242 -16 -2021 0 -2148 -4 -2004 55 -2120 55 -108 182 -213 303 -250
63 -20 98 -20 2202 -20 2104 0 2139 0 2202 20 121 37 248 142 303 250 58 115
55 5 55 1781 0 1595 0 1628 -20 1691 -38 125 -139 244 -254 302 -105 52 -139
56 -543 56 l-373 0 0 238 c0 266 -8 319 -63 411 -42 69 -106 126 -187 165 -58
27 -76 31 -170 33 -83 2 -116 -1 -157 -16z m253 -185 c28 -13 65 -41 82 -62
51 -62 62 -109 62 -271 l0 -143 -250 0 -250 0 0 153 c0 138 2 157 24 202 24
53 80 109 130 131 51 22 144 17 202 -10z m-2951 -177 c66 -31 131 -97 163
-167 l27 -57 3 -1548 2 -1547 -52 35 c-93 61 -157 79 -288 79 -129 0 -187 -16
-280 -79 l-50 -34 2 1557 3 1557 27 50 c37 69 104 131 174 161 78 33 192 30
269 -7z m3095 -559 l0 -80 -250 0 -250 0 0 80 0 80 250 0 250 0 0 -80z m-680
-355 l0 -264 -402 -287 c-222 -158 -414 -297 -428 -311 l-25 -23 -5 -330 -5
-330 -417 332 -417 333 0 378 -1 379 -29 29 c-20 20 -39 29 -61 29 -22 0 -41
-9 -61 -29 l-29 -29 0 -412 c0 -269 4 -418 11 -431 5 -11 235 -199 509 -419
l499 -399 3 -270 c3 -249 4 -270 22 -290 11 -12 292 -216 625 -454 526 -376
609 -432 640 -432 31 1 116 57 648 438 337 241 617 446 623 457 16 30 14 1441
-2 1463 -7 9 -197 149 -423 310 l-410 293 -3 267 -2 268 382 -3 383 -3 58 -30
c73 -36 140 -109 167 -181 20 -55 20 -60 18 -1672 l-3 -1617 -27 -50 c-36 -70
-112 -137 -181 -164 l-58 -21 -2109 0 -2109 0 -58 21 c-69 27 -145 94 -181
164 -27 50 -27 52 -30 300 -3 235 -2 255 18 307 27 74 84 137 162 178 57 31
71 34 148 35 73 0 93 -4 142 -28 82 -40 152 -120 178 -204 11 -36 20 -80 20
-98 0 -39 30 -80 65 -89 36 -9 93 18 105 49 6 17 10 570 10 1566 l0 1539 1020
0 1020 0 0 -265z m340 -89 c0 -168 2 -185 20 -209 11 -13 31 -28 45 -31 36 -9
93 18 105 49 6 15 10 105 10 201 l0 174 80 0 80 0 0 -890 0 -890 -80 0 -80 0
0 561 c0 575 -1 587 -39 616 -28 22 -89 16 -116 -12 l-25 -24 0 -571 0 -570
-80 0 -80 0 0 890 0 890 80 0 80 0 0 -184z m-342 -1050 l-3 -214 -295 210
c-162 115 -295 214 -295 219 0 5 133 104 295 220 l295 210 3 -215 c1 -119 1
-312 0 -430z m1172 426 c157 -112 286 -206 287 -210 1 -4 -107 -84 -240 -179
-133 -94 -268 -190 -299 -213 l-58 -41 0 431 c0 342 3 430 13 423 6 -4 140
-99 297 -211z m-1501 -632 l330 -235 1 -113 0 -112 136 -413 c75 -226 145
-424 155 -438 40 -56 151 -79 216 -46 62 33 75 61 216 489 l137 416 0 108 0
109 267 190 c147 105 297 212 335 238 l68 48 0 -569 0 -570 -542 -388 c-299
-213 -550 -388 -558 -388 -11 0 -558 384 -1108 779 -1 1 -1 71 0 155 l3 152
64 -51 c52 -42 71 -51 103 -51 66 0 106 61 82 125 -4 9 -62 61 -130 116 l-124
101 0 295 c0 174 4 293 9 291 5 -1 158 -109 340 -238z m971 -526 c0 -12 -202
-629 -209 -636 -3 -4 -54 139 -112 318 l-106 324 213 0 c118 0 214 -3 214 -6z"/>
<path d="M1559 3561 c-20 -20 -29 -39 -29 -61 0 -22 9 -41 29 -61 29 -29 30
-29 151 -29 115 0 122 1 145 25 18 17 25 35 25 62 -1 76 -34 93 -180 93 -110
0 -112 0 -141 -29z"/>
<path d="M2073 3566 c-22 -19 -28 -32 -28 -66 0 -34 6 -47 28 -66 l28 -24 288
0 c272 0 290 1 313 20 14 11 28 32 31 47 7 35 -15 88 -41 102 -14 7 -121 11
-306 11 l-285 0 -28 -24z"/>
<path d="M1584 3240 c-47 -19 -67 -77 -42 -123 24 -46 28 -46 336 -47 l293 0
24 25 c18 17 25 35 25 62 -1 42 -13 63 -47 81 -26 14 -555 16 -589 2z"/>
</g>
</svg>
